<?xml version="1.0" encoding="utf-8"?>
<!-- Generator: Adobe Illustrator 16.2.1, SVG Export Plug-In . SVG Version: 6.00 Build 0)  -->
<!DOCTYPE svg PUBLIC "-//W3C//DTD SVG 1.1//EN" "http://www.w3.org/Graphics/SVG/1.1/DTD/svg11.dtd">
<svg version="1.1" id="Ebene_1" xmlns="http://www.w3.org/2000/svg" xmlns:xlink="http://www.w3.org/1999/xlink" x="0px" y="0px"
	 width="364.32px" height="56.1px" viewBox="0 0 364.32 56.1" enable-background="new 0 0 364.32 56.1" xml:space="preserve">
<g>
	<g>
		<path fill="#FFFFFF" d="M39.114,22.019l-1.8-1.8l-4.5,4.5c0.1,0.8-0.3,1.697-1.1,2.6l-1.1,1.1c-0.8,0.802-1.9,1.302-2.7,1.302
			l-2.5,2.5l7.8,7.801l-1.4,1.398l-7.8-7.801l-1.4-1.398l-7.8-7.802l1.4-1.398l7.8,7.8l2.3-2.3c-0.1-0.9,0.6-2,1.5-2.9l1.1-1.1
			c0.9-0.9,1.9-1.5,2.7-1.3l4.4-4.4l-2-2c-4.3-4.3-11.3-4.4-15.601-0.1L7.814,27.118c-10.6,10.602-8.9,19.9-3.8,25
			c5.1,5.104,14.5,6.701,25-3.799l10.5-10.5C43.814,33.519,43.514,26.319,39.114,22.019z"/>
	</g>
	<g enable-background="new    ">
		<path fill="#FFFFFF" d="M93.802,18.031c9.806,0,14.967,7.078,14.967,17.179c0,1.623-0.147,3.098-0.369,3.982H85.396
			c0.737,6.562,4.866,10.248,10.691,10.248c3.097,0,5.751-0.959,8.405-2.654l2.875,5.309c-3.465,2.285-7.815,3.908-12.387,3.908
			c-10.027,0-17.843-7.004-17.843-18.949C77.139,25.256,85.323,18.031,93.802,18.031z M101.396,33.81
			c0-5.751-2.433-9.217-7.373-9.217c-4.276,0-7.963,3.171-8.7,9.217H101.396z"/>
		<path fill="#FFFFFF" d="M110.908,18.916h8.626l5.751,18.802c0.958,3.539,2.064,7.225,3.023,10.912h0.295
			c1.032-3.688,2.064-7.373,3.097-10.912l5.751-18.802h8.184l-12.313,36.202h-9.806L110.908,18.916z"/>
		<path fill="#FFFFFF" d="M166.722,18.031c9.069,0,17.252,6.93,17.252,19.022c0,12.018-8.184,18.949-17.252,18.949
			c-8.995,0-17.179-6.932-17.179-18.949C149.543,24.961,157.727,18.031,166.722,18.031z M166.722,49.072
			c5.309,0,8.553-4.791,8.553-12.018c0-7.3-3.244-12.093-8.553-12.093s-8.479,4.793-8.479,12.093
			C158.243,44.281,161.414,49.072,166.722,49.072z"/>
	</g>
	<g enable-background="new    ">
		<path fill="#FFFFFF" d="M195.33,2.106h3.244v48.735c0,1.549,0.664,2.287,1.549,2.287c0.295,0,0.59,0,1.326-0.148l0.59,2.654
			c-0.663,0.221-1.326,0.369-2.359,0.369c-2.875,0-4.35-1.77-4.35-5.604V2.106z"/>
		<path fill="#FFFFFF" d="M212.879,19.727h3.244v22.267c0,7.521,2.433,11.061,8.109,11.061c4.203,0,7.227-2.213,11.429-7.227V19.727
			h3.244v35.392h-2.802l-0.295-5.898h-0.221c-3.466,4.055-7.078,6.783-12.019,6.783c-7.3,0-10.69-4.424-10.69-13.566V19.727z"/>
		<path fill="#FFFFFF" d="M247.68,53.349l20.939-30.82h-18.654v-2.802h22.856v1.695l-20.866,30.821h21.604v2.875H247.68V53.349z"/>
		<path fill="#FFFFFF" d="M277.467,53.349l20.939-30.82h-18.654v-2.802h22.856v1.695l-20.866,30.821h21.604v2.875h-25.879V53.349z"
			/>
		<path fill="#FFFFFF" d="M323.77,18.842c8.405,0,13.566,5.973,13.566,16.368c0,0.885,0,1.77-0.147,2.654h-25.511
			c0.147,8.922,5.383,15.336,13.346,15.336c3.834,0,6.856-1.252,9.511-3.17l1.327,2.508c-2.802,1.695-5.973,3.465-11.133,3.465
			c-9.069,0-16.369-6.932-16.369-18.506C308.359,25.92,315.881,18.842,323.77,18.842z M334.239,35.359
			c0-9.069-4.056-13.715-10.396-13.715c-6.047,0-11.429,5.235-12.166,13.715H334.239z"/>
		<path fill="#FFFFFF" d="M347.437,19.727h2.802l0.295,6.562h0.221c2.359-4.351,5.825-7.447,10.027-7.447
			c1.328,0,2.359,0.147,3.539,0.737l-0.736,2.949c-1.18-0.442-1.844-0.59-3.244-0.59c-3.171,0-6.932,2.433-9.659,9.069v24.11h-3.244
			V19.727z"/>
	</g>
	<path fill="#FFFFFF" d="M74.116,36.695c-8.485,0-11.2-5.394-14.075-11.103c-2.324-4.614-4.726-9.387-10.282-11.137
		c-6.351-2.002-11.078,1.694-12.747,3.292l1.479,1.408c1.525-1.41,5.529-4.41,10.669-2.792c4.749,1.497,6.861,5.69,9.096,10.129
		c2.88,5.721,6.144,12.203,15.861,12.203H87.25v-2H74.116z"/>
</g>
</svg>
