<?xml version="1.0" encoding="utf-8"?>
<!-- Generator: Adobe Illustrator 17.0.0, SVG Export Plug-In . SVG Version: 6.00 Build 0)  -->
<!DOCTYPE svg PUBLIC "-//W3C//DTD SVG 1.1//EN" "http://www.w3.org/Graphics/SVG/1.1/DTD/svg11.dtd">
<svg version="1.1" id="Ebene_1" xmlns="http://www.w3.org/2000/svg" xmlns:xlink="http://www.w3.org/1999/xlink" x="0px" y="0px"
	 width="338.662px" height="73.527px" viewBox="0 0 338.662 73.527" enable-background="new 0 0 338.662 73.527"
	 xml:space="preserve">
<g>
	<path fill="#FFFFFF" d="M23.439,73.527c-7.348,0-13.091-2.317-17.23-6.953C2.07,61.94,0,55.933,0,48.553v-1.86
		c0-7.378,2.07-13.463,6.209-18.254c4.139-4.79,9.479-7.169,16.021-7.139c6.759,0,11.875,2.085,15.347,6.255
		c3.472,4.17,5.209,9.743,5.209,16.719v6.093H11.673L11.581,50.6c0.124,4.124,1.209,7.472,3.255,10.045
		c2.046,2.574,5.131,3.86,9.255,3.86c3.069,0,5.728-0.372,7.976-1.116c2.248-0.744,4.332-1.814,6.255-3.209l3.674,7.395
		c-1.923,1.674-4.465,3.085-7.627,4.232S27.563,73.527,23.439,73.527z M22.23,30.369c-2.946,0-5.302,1.062-7.069,3.186
		c-1.768,2.124-2.868,4.891-3.302,8.302l0.093,0.232h19.672v-0.884c0-3.224-0.752-5.836-2.256-7.836
		C27.865,31.369,25.486,30.369,22.23,30.369z"/>
	<path fill="#FFFFFF" d="M66.597,55.529l0.837,4.093h0.279l0.884-4.093l9.999-33.299h11.673L72.41,72.551h-9.813L44.646,22.23
		h11.673L66.597,55.529z"/>
	<path fill="#FFFFFF" d="M91.805,46.925c0-7.502,2.054-13.649,6.163-18.44c4.107-4.79,9.727-7.185,16.858-7.185
		c7.224,0,12.89,2.395,16.999,7.185c4.107,4.791,6.162,10.938,6.162,18.44v0.977c0,7.565-2.055,13.728-6.162,18.486
		c-4.109,4.76-9.743,7.139-16.905,7.139c-7.193,0-12.844-2.387-16.952-7.162c-4.109-4.774-6.163-10.929-6.163-18.463V46.925z
		 M103.106,47.902c0,4.93,0.961,8.929,2.883,11.999s4.899,4.604,8.93,4.604c3.937,0,6.89-1.542,8.859-4.627
		c1.969-3.084,2.953-7.076,2.953-11.975v-0.977c0-4.805-0.984-8.766-2.953-11.882c-1.969-3.116-4.953-4.674-8.953-4.674
		c-3.938,0-6.875,1.558-8.813,4.674c-1.938,3.116-2.907,7.077-2.907,11.882V47.902z"/>
	<path fill="#FFFFFF" d="M157.881,72.551H146.58V0h11.301V72.551z"/>
	<path fill="#FFFFFF" d="M200.009,65.11c-1.551,2.697-3.543,4.775-5.977,6.232c-2.434,1.457-5.248,2.186-8.441,2.186
		c-5.395,0-9.611-1.774-12.65-5.325c-3.039-3.55-4.558-9.061-4.558-16.533V22.23h11.255v29.532c0,4.806,0.697,8.1,2.093,9.883
		c1.395,1.783,3.565,2.674,6.511,2.674c2.728,0,5.015-0.488,6.86-1.465c1.844-0.977,3.294-2.395,4.349-4.255V22.23h11.301v50.32
		h-9.72L200.009,65.11z"/>
	<path fill="#FFFFFF" d="M231.897,63.528h26.881v9.022h-40.879v-7.395l25.393-33.811H218.41V22.23h39.159v7.162L231.897,63.528z"/>
	<path fill="#FFFFFF" d="M278.618,63.528h26.881v9.022H264.62v-7.395l25.393-33.811h-24.881V22.23h39.159v7.162L278.618,63.528z"/>
	<path fill="#FFFFFF" d="M337.313,32.416l-4.837-0.186c-2.202,0-4.039,0.465-5.511,1.395c-1.473,0.93-2.612,2.249-3.418,3.953
		v34.973h-11.301V22.23h10.325l0.744,7.301c1.271-2.573,2.907-4.588,4.906-6.046c2-1.457,4.302-2.186,6.907-2.186
		c0.681,0,1.317,0.055,1.907,0.163c0.588,0.109,1.131,0.241,1.627,0.396L337.313,32.416z"/>
</g>
</svg>
