<svg xmlns="http://www.w3.org/2000/svg" width="359.6" height="56.1"><g fill="#fff"><path d="M87.7 16c7.9 0 13 5.6 13 15.8 0 .7 0 1.4-.1 2.3h-25.4c0 9.2 5.3 16 13.5 16 3.9 0 6.9-1.3 9.5-3.2l1 1.9c-2.6 1.6-5.5 3.3-10.7 3.3-8.6 0-15.7-6.8-15.7-18 .1-11.1 7.3-18.1 14.9-18.1zm10.8 16.3c0-9.5-4.3-14.3-10.8-14.3-6.2 0-11.8 5.5-12.5 14.3h23.3z"/><path d="M106.7 16.9h2.4l8.2 22.3c1.2 3.3 2.4 6.8 3.6 9.8h.3c1.2-3 2.4-6.5 3.6-9.8l8.2-22.3h2.3l-13 34.4h-2.6l-13-34.4z"/><path d="M155.3 16c8.2 0 15.3 6.6 15.3 18.1 0 11.4-7.1 18-15.3 18-8.2 0-15.3-6.6-15.3-18 .1-11.4 7.1-18.1 15.3-18.1zm0 34.2c7.3 0 13-6.5 13-16s-5.6-16.1-13-16.1-13 6.6-13 16.1c.1 9.5 5.7 16 13 16z"/><path d="M180.4.1h5.9v44.6c0 1.9.8 2.6 1.7 2.6.4 0 .6 0 1.3-.1l.8 4.5c-.8.4-1.8.6-3.4.6-4.5 0-6.3-2.8-6.3-7.9v-44.3z"/><path d="M202.2 16.3h6v21.4c0 6.6 1.9 9.4 6.6 9.4 3.6 0 6-1.8 9.4-5.9v-24.9h6v35h-4.9l-.5-5.5h-.2c-3.2 3.8-6.8 6.3-11.5 6.3-7.4 0-10.7-4.8-10.7-13.7v-22.1z"/><path d="M244.7 21.2h-5.2v-4.5l5.5-.4.7-9.8h5v9.8h9.4v4.8h-9.4v19.4c0 4.3 1.4 6.8 5.4 6.8 1.2 0 2.8-.5 4-.9l1.2 4.5c-1.9.6-4.3 1.3-6.5 1.3-7.5 0-10-4.8-10-11.7v-19.3z"/><path d="M268.3 48.2l18.4-27h-16.4v-4.8h23.9v3.2l-18.4 27h19v4.8h-26.5v-3.2z"/><path d="M317.5 15.5c8.9 0 14 6.4 14 16.4 0 1.2-.1 2.4-.2 3.2h-23.6c.4 7.6 5 12.3 11.7 12.3 3.3 0 6.1-1.1 8.7-2.7l2.1 3.9c-3 1.9-6.8 3.6-11.5 3.6-9.4 0-16.8-6.8-16.8-18.3-.1-11.4 7.6-18.4 15.6-18.4zm8.8 15.7c0-7.1-3.2-11.1-8.6-11.1-4.9 0-9.4 4-10.1 11.1h18.7z"/><path d="M340.3 16.3h4.9l.5 6.3h.2c2.4-4.4 6-7.2 9.9-7.2 1.5 0 2.6.2 3.7.7l-1.2 5.2c-1.2-.4-1.9-.6-3.4-.6-3 0-6.5 2.2-8.9 8.1v22.5h-5.9v-35z"/></g><path fill="#fff" d="M39.1 22l-1.8-1.8-4.5 4.5c.1.8-.3 1.7-1.1 2.6l-1.1 1.1c-.8.8-1.9 1.3-2.7 1.3l-2.5 2.5 7.8 7.8-1.4 1.4-7.8-7.8-1.4-1.4-7.8-7.8 1.4-1.4 7.8 7.8 2.3-2.3c-.1-.9.6-2 1.5-2.9l1.1-1.1c.9-.9 1.9-1.5 2.7-1.3l4.4-4.4-2-2c-4.3-4.3-11.3-4.4-15.6-.1l-10.6 10.4c-10.6 10.6-8.9 19.9-3.8 25 5.1 5.1 14.5 6.7 25-3.8l10.5-10.5c4.3-4.3 4-11.5-.4-15.8z"/><path fill="#fff" d="M80.3 34.1c-14.3 0-17.3-.8-22.8-14.6-1.4-3.5-3.4-5.6-6-6.1-6.1-1.3-13.7 5.8-13.7 5.9l-1.2-1.3c.3-.3 8.3-7.8 15.3-6.3 3.2.7 5.6 3.1 7.3 7.2 5.4 13.6 7.7 13.6 24.2 13.5h3.7v1.8h-3.7c-1-.1-2.2-.1-3.1-.1z"/></svg>